<svg width="3071" height="592" viewBox="0 0 3071 592" fill="none" xmlns="http://www.w3.org/2000/svg">
<path fill-rule="evenodd" clip-rule="evenodd" d="M2243.06 29.6356C2201.26 32.1026 2168.6 41.4536 2143.15 58.2356C2133.96 64.2986 2118.22 80.0166 2112.2 89.1506C2096.6 112.795 2088.42 138.573 2083.31 180.071C2081.71 193.1 2080.95 372.65 2082.4 396.071C2088.9 501.217 2128.29 547.823 2221.96 561.218C2232.79 562.767 2249.33 562.972 2391.96 563.324C2575.82 563.778 2583.1 563.538 2617.38 555.929C2648.07 549.115 2672.3 535.71 2686.78 517.525C2697.83 503.664 2706.43 482.172 2709.37 461.071C2709.99 456.671 2710.69 451.834 2710.95 450.321L2711.41 447.571H2677.16H2642.92L2641.18 454.224C2638.27 465.294 2633.71 473.335 2625.87 481.22C2617.08 490.05 2606.7 495.39 2590.28 499.519C2568.08 505.103 2569.17 505.071 2401.96 505.071C2260.91 505.071 2247.16 504.927 2238.44 503.358C2210.4 498.306 2192.43 489.767 2178.29 474.773C2166.83 462.632 2160.05 448.801 2155.29 427.883C2153.06 418.095 2153.06 417.786 2152.69 303.571C2152.29 181.436 2152.46 175.647 2157.1 157.571C2160.02 146.186 2167.62 130.227 2173.89 122.349C2189.9 102.225 2216.11 90.9136 2254.46 87.5856C2269.78 86.2556 2533.22 86.2526 2551.96 87.5816C2587.49 90.1046 2607.81 97.7226 2621.88 113.808C2626.91 119.548 2633.64 132.302 2635.62 139.821L2636.87 144.571H2669.66C2695.23 144.571 2702.45 144.296 2702.45 143.321C2702.45 142.634 2701.79 137.796 2701 132.571C2696.94 105.829 2686.72 84.8376 2669.8 68.4956C2648.54 47.9586 2621.07 36.6766 2578.29 30.9036C2567.29 29.4186 2549.21 29.2156 2411.46 29.0266C2326.48 28.9106 2250.7 29.1846 2243.06 29.6356ZM2982.96 35.0506C2959.33 40.2526 2938.39 59.0016 2930.46 82.0716C2924.03 100.738 2926.54 125.179 2936.63 142.405C2938.46 145.521 2943.85 151.965 2948.6 156.726C2955.79 163.923 2958.83 166.152 2966.6 169.949C3003.46 187.943 3046.43 173.001 3064.1 136.042C3068.49 126.872 3070.42 117.43 3070.44 104.981C3070.47 84.8246 3063.85 68.9416 3049.36 54.4336C3035.04 40.0946 3018.96 33.5336 2998.46 33.6676C2993.23 33.7016 2986.26 34.3236 2982.96 35.0506ZM757.943 295.321C672.804 438.734 602.96 556.414 602.734 556.832C602.508 557.251 620.46 557.476 642.627 557.332L682.931 557.071L714.974 502.571L747.016 448.071H956.879H1166.74L1198.85 502.787L1230.96 557.503L1271.24 557.537L1311.52 557.571L1310.24 555.224C1309.53 553.933 1239.67 436.258 1154.98 293.724L1001.01 34.5706H956.874H912.741L757.943 295.321ZM1378.46 101.071V167.571H1413.46H1448.46V130.071V92.5706H1729.46H2010.46V63.5706V34.5706H1694.46H1378.46V101.071ZM2783.46 296.071V557.571H2818.96H2854.46V296.071V34.5706H2818.96H2783.46V296.071ZM2989.21 41.5396C2974.68 44.1836 2963.82 50.1946 2953.15 61.5066C2938.28 77.2786 2932.43 99.7216 2937.56 121.331C2938.18 123.938 2940.49 129.871 2942.69 134.515C2945.92 141.321 2948.28 144.526 2954.83 151.039C2967.88 164.012 2981.2 169.707 2998.62 169.762C3009.64 169.797 3015.86 168.376 3025.96 163.518C3040.45 156.544 3052.77 142.715 3058.25 127.247C3061.98 116.713 3062.55 99.1236 3059.51 88.0156C3055.45 73.1736 3045.18 59.1386 3032.1 50.5566C3020.83 43.1606 3002.03 39.2086 2989.21 41.5396ZM2966.46 105.071V145.571H2971.96H2977.46V129.571V113.571H2994.01C3018.08 113.571 3019.46 114.702 3019.46 134.539V145.571H3024.46H3029.46L3029.45 131.821C3029.45 119.849 3029.19 117.648 3027.45 114.801C3026.36 113.002 3024.33 111.018 3022.96 110.391L3020.46 109.252L3023.83 106.963C3028.56 103.746 3030.7 97.9056 3030.73 88.0706C3030.76 78.9596 3028.71 73.6446 3023.47 69.2346C3018.61 65.1486 3014.51 64.5826 2989.71 64.5766L2966.46 64.5706V105.071ZM2977.46 89.0906V104.835L2993.21 104.353C3010.47 103.825 3015.03 102.677 3018.03 98.0976C3020.28 94.6666 3020.96 87.1706 3019.52 81.8106C3017.61 74.7326 3015.85 74.1446 2995.26 73.7176L2977.46 73.3476V89.0906ZM955.154 95.7136C954.335 97.0096 915.517 162.646 868.891 241.571C822.264 320.496 783.465 386.084 782.67 387.321L781.225 389.571H956.447C1120.29 389.571 1131.63 389.462 1131.02 387.887C1130.22 385.796 958.594 95.3966 957.462 94.2136C957.01 93.7426 955.972 94.4176 955.154 95.7136ZM1454.46 288.571V317.571H1732.46H2010.46V288.571V259.571H1732.46H1454.46V288.571ZM1378.46 491.571V557.571H1694.46H2010.46V528.571V499.571H1729.46H1448.46V462.571V425.571H1413.46H1378.46V491.571Z" fill="black"/>
<path fill-rule="evenodd" clip-rule="evenodd" d="M270.955 1.04171C234.888 4.15971 200.156 14.0327 165.848 30.9177C135.796 45.7087 110.581 63.7557 86.9452 87.3917C63.6142 110.723 45.2322 136.334 30.9542 165.402C14.7532 198.385 6.84025 224.304 1.79625 260.902C-0.59875 278.286 -0.59875 318.518 1.79625 335.902C6.88525 372.828 16.0803 402.545 32.2233 434.237C68.5033 505.465 131.301 558.689 207.955 583.177C214.005 585.11 220.53 586.965 222.455 587.299C225.713 587.865 225.782 587.825 223.455 586.73C222.08 586.082 216.005 583.235 209.955 580.403C195.837 573.794 182.722 565.637 170.595 555.923C160.035 547.466 143.507 530.822 136.312 521.402C119.304 499.133 106.817 473.218 99.9342 445.902C84.8012 385.849 99.1133 320.734 138.271 271.481C143.258 265.208 182.541 225.421 347.369 59.6987L391.831 14.9957L388.893 13.8667C382.878 11.5557 359.544 6.00669 347.455 4.01369C323.391 0.0446937 295.16 -1.05129 270.955 1.04171ZM453.237 147.652C426.455 184.364 403.169 216.266 401.491 218.544L398.441 222.686L408.198 229.201C477.367 275.381 511.028 357.41 494.385 439.227C480.707 506.467 430.052 564.617 364.877 587.898C358.87 590.043 354.472 591.822 355.104 591.85C357.566 591.961 385.201 584.576 394.812 581.238C441.315 565.089 480.24 539.984 514.841 503.824C560.513 456.095 589.283 392.878 595.52 326.546C597.245 308.198 596.215 270.17 593.539 253.402C583.64 191.373 556.175 135.901 513.349 91.4367C507.768 85.6427 502.916 80.9017 502.567 80.9017C502.218 80.9017 480.02 110.94 453.237 147.652Z" fill="#E31F3A"/>
</svg>
