<svg width="597" height="592" viewBox="0 0 597 592" fill="none" xmlns="http://www.w3.org/2000/svg">
<path fill-rule="evenodd" clip-rule="evenodd" d="M270.955 1.04171C234.888 4.15971 200.156 14.0327 165.848 30.9177C135.796 45.7087 110.581 63.7557 86.9452 87.3917C63.6142 110.723 45.2322 136.334 30.9542 165.402C14.7532 198.385 6.84025 224.304 1.79625 260.902C-0.59875 278.286 -0.59875 318.518 1.79625 335.902C6.88525 372.828 16.0803 402.545 32.2233 434.237C68.5033 505.465 131.301 558.689 207.955 583.177C214.005 585.11 220.53 586.965 222.455 587.299C225.713 587.865 225.782 587.825 223.455 586.73C222.08 586.082 216.005 583.235 209.955 580.403C195.837 573.794 182.722 565.637 170.595 555.923C160.035 547.466 143.507 530.822 136.312 521.402C119.304 499.133 106.817 473.218 99.9342 445.902C84.8012 385.849 99.1133 320.734 138.271 271.481C143.258 265.208 182.541 225.421 347.369 59.6987L391.831 14.9957L388.893 13.8667C382.878 11.5557 359.544 6.00669 347.455 4.01369C323.391 0.0446937 295.16 -1.05129 270.955 1.04171ZM453.237 147.652C426.455 184.364 403.169 216.266 401.491 218.544L398.441 222.686L408.198 229.201C477.367 275.381 511.028 357.41 494.385 439.227C480.707 506.467 430.052 564.617 364.877 587.898C358.87 590.043 354.472 591.822 355.104 591.85C357.566 591.961 385.201 584.576 394.812 581.238C441.315 565.089 480.24 539.984 514.841 503.824C560.513 456.095 589.283 392.878 595.52 326.546C597.245 308.198 596.215 270.17 593.539 253.402C583.64 191.373 556.175 135.901 513.349 91.4367C507.768 85.6427 502.916 80.9017 502.567 80.9017C502.218 80.9017 480.02 110.94 453.237 147.652Z" fill="#E31F3A"/>
</svg>
