<?xml version="1.0" encoding="UTF-8" standalone="no"?>
<svg width="800px" height="250px" viewBox="0 0 800 250" version="1.1" xmlns="http://www.w3.org/2000/svg" xmlns:xlink="http://www.w3.org/1999/xlink">
  <!-- Semi Truck SVG -->
  <!-- Truck Cabin -->
  <g id="cabin">
    <rect x="80" y="100" width="150" height="100" rx="10" fill="#d2d2d2" stroke="#333333" stroke-width="2"/>
    <rect x="80" y="60" width="120" height="40" rx="5" fill="#d2d2d2" stroke="#333333" stroke-width="2"/>
    <rect x="90" y="70" width="100" height="25" fill="#87CEEB" stroke="#333333" stroke-width="1" opacity="0.8"/>
    <rect x="130" y="110" width="35" height="50" fill="#333333" stroke="#222222" stroke-width="1"/>
    <rect x="185" y="110" width="35" height="50" fill="#333333" stroke="#222222" stroke-width="1"/>
    <rect x="80" y="180" width="150" height="20" fill="#888888" stroke="#333333" stroke-width="2"/>
  </g>

  <!-- Truck Trailer -->
  <g id="trailer">
    <rect x="230" y="80" width="450" height="120" fill="#f0f0f0" stroke="#333333" stroke-width="2"/>
    <rect x="240" y="90" width="430" height="100" fill="#e6e6e6" stroke="#333333" stroke-width="1"/>
    <rect x="230" y="180" width="450" height="20" fill="#888888" stroke="#333333" stroke-width="2"/>
  </g>

  <!-- Wheels -->
  <g id="wheels">
    <!-- Cabin Wheels -->
    <circle cx="120" cy="210" r="25" fill="#333333" stroke="#222222" stroke-width="2"/>
    <circle cx="120" cy="210" r="15" fill="#555555" stroke="#333333" stroke-width="1"/>
    <circle cx="120" cy="210" r="5" fill="#888888"/>
    
    <circle cx="190" cy="210" r="25" fill="#333333" stroke="#222222" stroke-width="2"/>
    <circle cx="190" cy="210" r="15" fill="#555555" stroke="#333333" stroke-width="1"/>
    <circle cx="190" cy="210" r="5" fill="#888888"/>
    
    <!-- Trailer Wheels -->
    <circle cx="280" cy="210" r="25" fill="#333333" stroke="#222222" stroke-width="2"/>
    <circle cx="280" cy="210" r="15" fill="#555555" stroke="#333333" stroke-width="1"/>
    <circle cx="280" cy="210" r="5" fill="#888888"/>
    
    <circle cx="340" cy="210" r="25" fill="#333333" stroke="#222222" stroke-width="2"/>
    <circle cx="340" cy="210" r="15" fill="#555555" stroke="#333333" stroke-width="1"/>
    <circle cx="340" cy="210" r="5" fill="#888888"/>
    
    <circle cx="570" cy="210" r="25" fill="#333333" stroke="#222222" stroke-width="2"/>
    <circle cx="570" cy="210" r="15" fill="#555555" stroke="#333333" stroke-width="1"/>
    <circle cx="570" cy="210" r="5" fill="#888888"/>
    
    <circle cx="630" cy="210" r="25" fill="#333333" stroke="#222222" stroke-width="2"/>
    <circle cx="630" cy="210" r="15" fill="#555555" stroke="#333333" stroke-width="1"/>
    <circle cx="630" cy="210" r="5" fill="#888888"/>
  </g>

  <!-- Details -->
  <g id="details">
    <!-- Windshield -->
    <rect x="90" y="70" width="100" height="25" rx="2" fill="none" stroke="#333333" stroke-width="1"/>
    
    <!-- Headlights -->
    <rect x="80" y="160" width="15" height="10" rx="2" fill="#FFFF00" stroke="#333333" stroke-width="1"/>
    <rect x="215" y="160" width="15" height="10" rx="2" fill="#FF0000" stroke="#333333" stroke-width="1"/>
    
    <!-- Trailer Details -->
    <rect x="240" y="100" width="420" height="3" fill="#cccccc" stroke="none"/>
    <rect x="240" y="130" width="420" height="3" fill="#cccccc" stroke="none"/>
    <rect x="240" y="160" width="420" height="3" fill="#cccccc" stroke="none"/>
    
    <!-- Connection between cab and trailer -->
    <rect x="205" y="120" width="25" height="10" fill="#888888" stroke="#333333" stroke-width="1"/>
  </g>
</svg>
