<?xml version="1.0" encoding="UTF-8" standalone="no"?>
<svg width="400" height="100" viewBox="0 0 400 100" fill="none" xmlns="http://www.w3.org/2000/svg">
  <!-- Truck cab -->
  <path d="M100 80 L100 50 L120 30 L140 30 L150 50 L150 80 Z" fill="#ffffff" stroke="#333333" stroke-width="1"/>
  <!-- Windshield -->
  <path d="M110 50 L120 35 L130 35 L135 50 Z" fill="#d1e0eb" stroke="#333333" stroke-width="0.5"/>
  <!-- Cab details -->
  <line x1="125" y1="50" x2="125" y2="80" stroke="#333333" stroke-width="0.5"/>
  <!-- Front wheel -->
  <circle cx="125" cy="80" r="10" fill="#333333" stroke="#000000" stroke-width="1"/>
  <circle cx="125" cy="80" r="5" fill="#666666"/>
  <!-- Truck container/trailer -->
  <rect x="150" y="25" width="200" height="55" rx="2" ry="2" fill="#ffffff" stroke="#333333" stroke-width="1"/>
  <!-- Back wheels -->
  <circle cx="200" cy="80" r="10" fill="#333333" stroke="#000000" stroke-width="1"/>
  <circle cx="200" cy="80" r="5" fill="#666666"/>
  <circle cx="225" cy="80" r="10" fill="#333333" stroke="#000000" stroke-width="1"/>
  <circle cx="225" cy="80" r="5" fill="#666666"/>
  <circle cx="275" cy="80" r="10" fill="#333333" stroke="#000000" stroke-width="1"/>
  <circle cx="275" cy="80" r="5" fill="#666666"/>
  <circle cx="300" cy="80" r="10" fill="#333333" stroke="#000000" stroke-width="1"/>
  <circle cx="300" cy="80" r="5" fill="#666666"/>
  <!-- Trailer details -->
  <line x1="200" y1="25" x2="200" y2="80" stroke="#cccccc" stroke-width="0.5"/>
  <line x1="250" y1="25" x2="250" y2="80" stroke="#cccccc" stroke-width="0.5"/>
  <line x1="300" y1="25" x2="300" y2="80" stroke="#cccccc" stroke-width="0.5"/>
  <line x1="150" y1="50" x2="350" y2="50" stroke="#cccccc" stroke-width="0.5"/>
</svg>
