<?xml version="1.0" encoding="UTF-8"?>
<svg width="40px" height="40px" viewBox="0 0 40 40" version="1.1" xmlns="http://www.w3.org/2000/svg">
    <g stroke="none" stroke-width="1" fill="none" fill-rule="evenodd">
        <circle fill="#6941C6" cx="20" cy="20" r="20"/>
        <path d="M30,14.5 C30,13.672 29.328,13 28.5,13 L25,13 L25,17 L31,17 L30,14.5 Z" fill="#FFFFFF"/>
        <path d="M10.5,24 C9.672,24 9,24.672 9,25.5 C9,26.328 9.672,27 10.5,27 C11.328,27 12,26.328 12,25.5 C12,24.672 11.328,24 10.5,24 Z" fill="#FFFFFF"/>
        <path d="M27.5,24 C26.672,24 26,24.672 26,25.5 C26,26.328 26.672,27 27.5,27 C28.328,27 29,26.328 29,25.5 C29,24.672 28.328,24 27.5,24 Z" fill="#FFFFFF"/>
        <path d="M31,18 L24,18 L24,13 L16,13 C14.343,13 13,14.343 13,16 L13,24 L10.5,24 C10.5,24 10.5,24 10.5,24 C8.567,24 7,25.567 7,27.5 C7,29.433 8.567,31 10.5,31 C12.433,31 14,29.433 14,27.5 C14,27.5 14,27.5 14,27.5 L27.5,27.5 C27.5,27.5 27.5,27.5 27.5,27.5 C29.433,27.5 31,25.933 31,24 C31,22.067 29.433,20.5 27.5,20.5 L27.5,18 L31,18 L31,18 Z M27.5,20.5 C27.5,20.5 27.5,20.5 27.5,20.5 C27.5,20.5 27.5,20.5 27.5,20.5 L27.5,20.5 Z" fill="#FFFFFF"/>
    </g>
</svg>
