<?xml version="1.0" encoding="UTF-8" standalone="no"?>
<svg width="1000" height="200" viewBox="0 0 1000 200" fill="none" xmlns="http://www.w3.org/2000/svg">
  <!-- Red half-circle element -->
  <path d="M100 200C155.228 200 200 155.228 200 100C200 44.7715 155.228 0 100 0C44.7715 0 0 44.7715 0 100C0 155.228 44.7715 200 100 200Z" fill="#E22028"/>
  
  <!-- Red triangular shape inside the circle -->
  <path d="M115 100L146 65H84L115 100Z" fill="#BC2025"/>
  
  <!-- Black "AECI" letters -->
  <path d="M230 190L290 10H340L400 190H355L341 150H289L275 190H230ZM298 120H332L315 70L298 120Z" fill="#000000"/>
  <path d="M410 190V10H520V60H450V80H505V130H450V140H520V190H410Z" fill="#000000"/>
  <path d="M535 190V10H580V40C595 20 615 10 635 10V65C615 65 595 75 580 95V190H535Z" fill="#000000"/>
  <path d="M645 10H690V190H645V10Z" fill="#000000"/>
  
  <!-- Registered trademark symbol -->
  <circle cx="700" cy="25" r="15" fill="none" stroke="#000000" stroke-width="1.5"/>
  <text x="700" y="30" font-family="Arial" font-size="15" text-anchor="middle" fill="#000000">R</text>
</svg>
