<?xml version="1.0" encoding="UTF-8" standalone="no"?>
<svg width="400" height="150" viewBox="0 0 400 150" fill="none" xmlns="http://www.w3.org/2000/svg">
  <!-- Cabin -->
  <path d="M100 100 L100 65 L120 50 L140 50 L150 65 L150 100 Z" fill="#f0f0f0" stroke="#333333" stroke-width="1"/>
  
  <!-- Windshield -->
  <path d="M120 65 L135 55 L140 65 Z" fill="#d9e6f2" stroke="#333333" stroke-width="0.5"/>
  
  <!-- Front grill -->
  <rect x="105" y="75" width="15" height="10" fill="#e6e6e6" stroke="#333333" stroke-width="0.5"/>
  
  <!-- Headlight -->
  <rect x="105" y="70" width="5" height="3" fill="#ffcc00" stroke="#333333" stroke-width="0.3"/>
  
  <!-- Front wheel -->
  <circle cx="125" cy="100" r="10" fill="#1a1a1a" stroke="#000000" stroke-width="1"/>
  <circle cx="125" cy="100" r="5" fill="#333333"/>
  
  <!-- Trailer container -->
  <rect x="150" y="45" width="200" height="55" rx="4" ry="4" fill="#f0f0f0" stroke="#333333" stroke-width="1"/>
  
  <!-- Rear wheels -->
  <circle cx="200" cy="100" r="10" fill="#1a1a1a" stroke="#000000" stroke-width="1"/>
  <circle cx="200" cy="100" r="5" fill="#333333"/>
  
  <circle cx="220" cy="100" r="10" fill="#1a1a1a" stroke="#000000" stroke-width="1"/>
  <circle cx="220" cy="100" r="5" fill="#333333"/>
  
  <circle cx="275" cy="100" r="10" fill="#1a1a1a" stroke="#000000" stroke-width="1"/>
  <circle cx="275" cy="100" r="5" fill="#333333"/>
  
  <circle cx="295" cy="100" r="10" fill="#1a1a1a" stroke="#000000" stroke-width="1"/>
  <circle cx="295" cy="100" r="5" fill="#333333"/>
  
  <!-- Door line -->
  <line x1="127" y1="65" x2="127" y2="90" stroke="#4d4d4d" stroke-width="0.5"/>
  
  <!-- Container details -->
  <line x1="150" y1="65" x2="350" y2="65" stroke="#4d4d4d" stroke-width="0.5"/>
  <line x1="200" y1="45" x2="200" y2="100" stroke="#4d4d4d" stroke-width="0.5"/>
  <line x1="250" y1="45" x2="250" y2="100" stroke="#4d4d4d" stroke-width="0.5"/>
  <line x1="300" y1="45" x2="300" y2="100" stroke="#4d4d4d" stroke-width="0.5"/>
</svg>
